<svg width="74" height="49" viewBox="0 0 74 49" fill="none" xmlns="http://www.w3.org/2000/svg">
<path fill-rule="evenodd" clip-rule="evenodd" d="M39.25 4.375C42.2668 4.375 45.1601 5.57343 47.2933 7.70666C49.4266 9.83988 50.625 12.7332 50.625 15.75C50.625 15.9821 50.5328 16.2046 50.3687 16.3687C50.2046 16.5328 49.9821 16.625 49.75 16.625H39.25C38.7668 16.625 38.375 16.2332 38.375 15.75V5.25H39.25V4.375ZM40.125 6.16483V14.875H48.8352C48.6315 12.6432 47.6535 10.5417 46.0559 8.9441C44.4583 7.34647 42.3568 6.36848 40.125 6.16483Z" fill="#0068CF"/>
<path fill-rule="evenodd" clip-rule="evenodd" d="M29.4304 9.79203C31.301 8.54213 33.5002 7.875 35.75 7.875C35.9821 7.875 36.2046 7.96719 36.3687 8.13128C36.5328 8.29537 36.625 8.51793 36.625 8.75V18.375H46.25C46.7332 18.375 47.125 18.7667 47.125 19.25C47.125 21.4998 46.4579 23.699 45.208 25.5696C43.9581 27.4402 42.1815 28.8982 40.103 29.7591C38.0245 30.6201 35.7374 30.8453 33.5309 30.4064C31.3243 29.9675 29.2975 28.8842 27.7067 27.2933C26.1158 25.7025 25.0325 23.6757 24.5936 21.4691C24.1547 19.2626 24.3799 16.9755 25.2409 14.897C26.1018 12.8185 27.5598 11.0419 29.4304 9.79203ZM34.875 9.66485C33.2802 9.81043 31.7419 10.3523 30.4026 11.2471C28.8198 12.3047 27.5862 13.8079 26.8577 15.5667C26.1292 17.3254 25.9386 19.2607 26.3099 21.1277C26.6813 22.9948 27.598 24.7098 28.9441 26.0559C30.2902 27.402 32.0052 28.3187 33.8723 28.6901C35.7393 29.0614 37.6746 28.8708 39.4333 28.1423C41.1921 27.4138 42.6953 26.1802 43.7529 24.5974C44.6477 23.2581 45.1896 21.7198 45.3352 20.125H35.75C35.2668 20.125 34.875 19.7332 34.875 19.25V9.66485Z" fill="#0068CF"/>
<path d="M3.05078 38.5977V39.4414H2.23047V46.1562H3.05078V47H0.425781V46.1562H1.24609V39.4414H0.425781V38.5977H3.05078ZM9.29688 47H8.33594V43.5781C8.33594 42.3047 7.87109 41.668 6.94141 41.668C6.46094 41.668 6.0625 41.8496 5.74609 42.2129C5.43359 42.5723 5.27734 43.0273 5.27734 43.5781V47H4.31641V41H5.27734V41.9961H5.30078C5.75391 41.2383 6.41016 40.8594 7.26953 40.8594C7.92578 40.8594 8.42773 41.0723 8.77539 41.498C9.12305 41.9199 9.29688 42.5312 9.29688 43.332V47ZM15.8301 41L13.4395 47H12.4961L10.2227 41H11.2773L12.8008 45.3594C12.9141 45.6797 12.9844 45.959 13.0117 46.1973H13.0352C13.0742 45.8965 13.1367 45.625 13.2227 45.3828L14.8164 41H15.8301ZM21.6895 44.2402H17.4531C17.4688 44.9082 17.6484 45.4238 17.9922 45.7871C18.3359 46.1504 18.8086 46.332 19.4102 46.332C20.0859 46.332 20.707 46.1094 21.2734 45.6641V46.5664C20.7461 46.9492 20.0488 47.1406 19.1816 47.1406C18.334 47.1406 17.668 46.8691 17.1836 46.3262C16.6992 45.7793 16.457 45.0117 16.457 44.0234C16.457 43.0898 16.7207 42.3301 17.248 41.7441C17.7793 41.1543 18.4375 40.8594 19.2227 40.8594C20.0078 40.8594 20.6152 41.1133 21.0449 41.6211C21.4746 42.1289 21.6895 42.834 21.6895 43.7363V44.2402ZM20.7051 43.4258C20.7012 42.8711 20.5664 42.4395 20.3008 42.1309C20.0391 41.8223 19.6738 41.668 19.2051 41.668C18.752 41.668 18.3672 41.8301 18.0508 42.1543C17.7344 42.4785 17.5391 42.9023 17.4648 43.4258H20.7051ZM22.7852 46.7832V45.752C23.3086 46.1387 23.8848 46.332 24.5137 46.332C25.3574 46.332 25.7793 46.0508 25.7793 45.4883C25.7793 45.3281 25.7422 45.1934 25.668 45.084C25.5977 44.9707 25.5 44.8711 25.375 44.7852C25.2539 44.6992 25.1094 44.623 24.9414 44.5566C24.7773 44.4863 24.5996 44.4141 24.4082 44.3398C24.1426 44.2344 23.9082 44.1289 23.7051 44.0234C23.5059 43.9141 23.3379 43.793 23.2012 43.6602C23.0684 43.5234 22.9668 43.3691 22.8965 43.1973C22.8301 43.0254 22.7969 42.8242 22.7969 42.5938C22.7969 42.3125 22.8613 42.0645 22.9902 41.8496C23.1191 41.6309 23.291 41.4492 23.5059 41.3047C23.7207 41.1562 23.9648 41.0449 24.2383 40.9707C24.5156 40.8965 24.8008 40.8594 25.0938 40.8594C25.6133 40.8594 26.0781 40.9492 26.4883 41.1289V42.1016C26.0469 41.8125 25.5391 41.668 24.9648 41.668C24.7852 41.668 24.623 41.6895 24.4785 41.7324C24.334 41.7715 24.209 41.8281 24.1035 41.9023C24.002 41.9766 23.9219 42.0664 23.8633 42.1719C23.8086 42.2734 23.7812 42.3867 23.7812 42.5117C23.7812 42.668 23.8086 42.7988 23.8633 42.9043C23.9219 43.0098 24.0059 43.1035 24.1152 43.1855C24.2246 43.2676 24.3574 43.3418 24.5137 43.4082C24.6699 43.4746 24.8477 43.5469 25.0469 43.625C25.3125 43.7266 25.5508 43.832 25.7617 43.9414C25.9727 44.0469 26.1523 44.168 26.3008 44.3047C26.4492 44.4375 26.5625 44.5918 26.6406 44.7676C26.7227 44.9434 26.7637 45.1523 26.7637 45.3945C26.7637 45.6914 26.6973 45.9492 26.5645 46.168C26.4355 46.3867 26.2617 46.5684 26.043 46.7129C25.8242 46.8574 25.5723 46.9648 25.2871 47.0352C25.002 47.1055 24.7031 47.1406 24.3906 47.1406C23.7734 47.1406 23.2383 47.0215 22.7852 46.7832ZM31.0293 46.9414C30.8027 47.0664 30.5039 47.1289 30.1328 47.1289C29.082 47.1289 28.5566 46.543 28.5566 45.3711V41.8203H27.5254V41H28.5566V39.5352L29.5176 39.2246V41H31.0293V41.8203H29.5176V45.2012C29.5176 45.6035 29.5859 45.8906 29.7227 46.0625C29.8594 46.2344 30.0859 46.3203 30.4023 46.3203C30.6445 46.3203 30.8535 46.2539 31.0293 46.1211V46.9414ZM32.8047 39.4766C32.6328 39.4766 32.4863 39.418 32.3652 39.3008C32.2441 39.1836 32.1836 39.0352 32.1836 38.8555C32.1836 38.6758 32.2441 38.5273 32.3652 38.4102C32.4863 38.2891 32.6328 38.2285 32.8047 38.2285C32.9805 38.2285 33.1289 38.2891 33.25 38.4102C33.375 38.5273 33.4375 38.6758 33.4375 38.8555C33.4375 39.0273 33.375 39.1738 33.25 39.2949C33.1289 39.416 32.9805 39.4766 32.8047 39.4766ZM33.2734 47H32.3125V41H33.2734V47ZM43.7383 47H42.7773V43.5547C42.7773 42.8906 42.6738 42.4102 42.4668 42.1133C42.2637 41.8164 41.9199 41.668 41.4355 41.668C41.0254 41.668 40.6758 41.8555 40.3867 42.2305C40.1016 42.6055 39.959 43.0547 39.959 43.5781V47H38.998V43.4375C38.998 42.2578 38.543 41.668 37.6328 41.668C37.2109 41.668 36.8633 41.8457 36.5898 42.2012C36.3164 42.5527 36.1797 43.0117 36.1797 43.5781V47H35.2188V41H36.1797V41.9492H36.2031C36.6289 41.2227 37.25 40.8594 38.0664 40.8594C38.4766 40.8594 38.834 40.9746 39.1387 41.2051C39.4434 41.4316 39.6523 41.7305 39.7656 42.1016C40.2109 41.2734 40.875 40.8594 41.7578 40.8594C43.0781 40.8594 43.7383 41.6738 43.7383 43.3027V47ZM50.377 44.2402H46.1406C46.1562 44.9082 46.3359 45.4238 46.6797 45.7871C47.0234 46.1504 47.4961 46.332 48.0977 46.332C48.7734 46.332 49.3945 46.1094 49.9609 45.6641V46.5664C49.4336 46.9492 48.7363 47.1406 47.8691 47.1406C47.0215 47.1406 46.3555 46.8691 45.8711 46.3262C45.3867 45.7793 45.1445 45.0117 45.1445 44.0234C45.1445 43.0898 45.4082 42.3301 45.9355 41.7441C46.4668 41.1543 47.125 40.8594 47.9102 40.8594C48.6953 40.8594 49.3027 41.1133 49.7324 41.6211C50.1621 42.1289 50.377 42.834 50.377 43.7363V44.2402ZM49.3926 43.4258C49.3887 42.8711 49.2539 42.4395 48.9883 42.1309C48.7266 41.8223 48.3613 41.668 47.8926 41.668C47.4395 41.668 47.0547 41.8301 46.7383 42.1543C46.4219 42.4785 46.2266 42.9023 46.1523 43.4258H49.3926ZM56.8164 47H55.8555V43.5781C55.8555 42.3047 55.3906 41.668 54.4609 41.668C53.9805 41.668 53.582 41.8496 53.2656 42.2129C52.9531 42.5723 52.7969 43.0273 52.7969 43.5781V47H51.8359V41H52.7969V41.9961H52.8203C53.2734 41.2383 53.9297 40.8594 54.7891 40.8594C55.4453 40.8594 55.9473 41.0723 56.2949 41.498C56.6426 41.9199 56.8164 42.5312 56.8164 43.332V47ZM61.416 46.9414C61.1895 47.0664 60.8906 47.1289 60.5195 47.1289C59.4688 47.1289 58.9434 46.543 58.9434 45.3711V41.8203H57.9121V41H58.9434V39.5352L59.9043 39.2246V41H61.416V41.8203H59.9043V45.2012C59.9043 45.6035 59.9727 45.8906 60.1094 46.0625C60.2461 46.2344 60.4727 46.3203 60.7891 46.3203C61.0312 46.3203 61.2402 46.2539 61.416 46.1211V46.9414ZM65.207 47.1406C64.3203 47.1406 63.6113 46.8613 63.0801 46.3027C62.5527 45.7402 62.2891 44.9961 62.2891 44.0703C62.2891 43.0625 62.5645 42.2754 63.1152 41.709C63.666 41.1426 64.4102 40.8594 65.3477 40.8594C66.2422 40.8594 66.9395 41.1348 67.4395 41.6855C67.9434 42.2363 68.1953 43 68.1953 43.9766C68.1953 44.9336 67.9238 45.7012 67.3809 46.2793C66.8418 46.8535 66.1172 47.1406 65.207 47.1406ZM65.2773 41.668C64.6602 41.668 64.1719 41.8789 63.8125 42.3008C63.4531 42.7188 63.2734 43.2969 63.2734 44.0352C63.2734 44.7461 63.4551 45.3066 63.8184 45.7168C64.1816 46.127 64.668 46.332 65.2773 46.332C65.8984 46.332 66.375 46.1309 66.707 45.7285C67.043 45.3262 67.2109 44.7539 67.2109 44.0117C67.2109 43.2617 67.043 42.6836 66.707 42.2773C66.375 41.8711 65.8984 41.668 65.2773 41.668ZM69.3672 46.7832V45.752C69.8906 46.1387 70.4668 46.332 71.0957 46.332C71.9395 46.332 72.3613 46.0508 72.3613 45.4883C72.3613 45.3281 72.3242 45.1934 72.25 45.084C72.1797 44.9707 72.082 44.8711 71.957 44.7852C71.8359 44.6992 71.6914 44.623 71.5234 44.5566C71.3594 44.4863 71.1816 44.4141 70.9902 44.3398C70.7246 44.2344 70.4902 44.1289 70.2871 44.0234C70.0879 43.9141 69.9199 43.793 69.7832 43.6602C69.6504 43.5234 69.5488 43.3691 69.4785 43.1973C69.4121 43.0254 69.3789 42.8242 69.3789 42.5938C69.3789 42.3125 69.4434 42.0645 69.5723 41.8496C69.7012 41.6309 69.873 41.4492 70.0879 41.3047C70.3027 41.1562 70.5469 41.0449 70.8203 40.9707C71.0977 40.8965 71.3828 40.8594 71.6758 40.8594C72.1953 40.8594 72.6602 40.9492 73.0703 41.1289V42.1016C72.6289 41.8125 72.1211 41.668 71.5469 41.668C71.3672 41.668 71.2051 41.6895 71.0605 41.7324C70.916 41.7715 70.791 41.8281 70.6855 41.9023C70.584 41.9766 70.5039 42.0664 70.4453 42.1719C70.3906 42.2734 70.3633 42.3867 70.3633 42.5117C70.3633 42.668 70.3906 42.7988 70.4453 42.9043C70.5039 43.0098 70.5879 43.1035 70.6973 43.1855C70.8066 43.2676 70.9395 43.3418 71.0957 43.4082C71.252 43.4746 71.4297 43.5469 71.6289 43.625C71.8945 43.7266 72.1328 43.832 72.3438 43.9414C72.5547 44.0469 72.7344 44.168 72.8828 44.3047C73.0312 44.4375 73.1445 44.5918 73.2227 44.7676C73.3047 44.9434 73.3457 45.1523 73.3457 45.3945C73.3457 45.6914 73.2793 45.9492 73.1465 46.168C73.0176 46.3867 72.8438 46.5684 72.625 46.7129C72.4062 46.8574 72.1543 46.9648 71.8691 47.0352C71.584 47.1055 71.2852 47.1406 70.9727 47.1406C70.3555 47.1406 69.8203 47.0215 69.3672 46.7832Z" fill="#0068CF"/>
</svg>
