<svg width="35" height="49" viewBox="0 0 35 49" fill="none" xmlns="http://www.w3.org/2000/svg">
<path d="M17.5 11.6666C19.1041 11.6666 20.4166 10.3541 20.4166 8.74998C20.4166 7.14581 19.1041 5.83331 17.5 5.83331C15.8958 5.83331 14.5833 7.14581 14.5833 8.74998C14.5833 10.3541 15.8958 11.6666 17.5 11.6666ZM17.5 14.5833C15.8958 14.5833 14.5833 15.8958 14.5833 17.5C14.5833 19.1041 15.8958 20.4166 17.5 20.4166C19.1041 20.4166 20.4166 19.1041 20.4166 17.5C20.4166 15.8958 19.1041 14.5833 17.5 14.5833ZM17.5 23.3333C15.8958 23.3333 14.5833 24.6458 14.5833 26.25C14.5833 27.8541 15.8958 29.1666 17.5 29.1666C19.1041 29.1666 20.4166 27.8541 20.4166 26.25C20.4166 24.6458 19.1041 23.3333 17.5 23.3333Z" fill="#0068CF"/>
<path d="M14.7227 47H13.7441V41.3633C13.7441 40.918 13.7715 40.373 13.8262 39.7285H13.8027C13.709 40.1074 13.625 40.3789 13.5508 40.543L10.6797 47H10.1992L7.33398 40.5898C7.25195 40.4023 7.16797 40.1152 7.08203 39.7285H7.05859C7.08984 40.0645 7.10547 40.6133 7.10547 41.375V47H6.15625V38.5977H7.45703L10.0352 44.457C10.2344 44.9062 10.3633 45.2422 10.4219 45.4648H10.457C10.625 45.0039 10.7598 44.6602 10.8613 44.4336L13.4922 38.5977H14.7227V47ZM21.1035 47H20.1426V46.0625H20.1191C19.7012 46.7812 19.0859 47.1406 18.2734 47.1406C17.6758 47.1406 17.207 46.9824 16.8672 46.666C16.5312 46.3496 16.3633 45.9297 16.3633 45.4062C16.3633 44.2852 17.0234 43.6328 18.3438 43.4492L20.1426 43.1973C20.1426 42.1777 19.7305 41.668 18.9062 41.668C18.1836 41.668 17.5312 41.9141 16.9492 42.4062V41.4219C17.5391 41.0469 18.2188 40.8594 18.9883 40.8594C20.3984 40.8594 21.1035 41.6055 21.1035 43.0977V47ZM20.1426 43.9648L18.6953 44.1641C18.25 44.2266 17.9141 44.3379 17.6875 44.498C17.4609 44.6543 17.3477 44.9336 17.3477 45.3359C17.3477 45.6289 17.4512 45.8691 17.6582 46.0566C17.8691 46.2402 18.1484 46.332 18.4961 46.332C18.9727 46.332 19.3652 46.166 19.6738 45.834C19.9863 45.498 20.1426 45.0742 20.1426 44.5625V43.9648ZM23.4062 39.4766C23.2344 39.4766 23.0879 39.418 22.9668 39.3008C22.8457 39.1836 22.7852 39.0352 22.7852 38.8555C22.7852 38.6758 22.8457 38.5273 22.9668 38.4102C23.0879 38.2891 23.2344 38.2285 23.4062 38.2285C23.582 38.2285 23.7305 38.2891 23.8516 38.4102C23.9766 38.5273 24.0391 38.6758 24.0391 38.8555C24.0391 39.0273 23.9766 39.1738 23.8516 39.2949C23.7305 39.416 23.582 39.4766 23.4062 39.4766ZM23.875 47H22.9141V41H23.875V47ZM25.457 46.7832V45.752C25.9805 46.1387 26.5566 46.332 27.1855 46.332C28.0293 46.332 28.4512 46.0508 28.4512 45.4883C28.4512 45.3281 28.4141 45.1934 28.3398 45.084C28.2695 44.9707 28.1719 44.8711 28.0469 44.7852C27.9258 44.6992 27.7812 44.623 27.6133 44.5566C27.4492 44.4863 27.2715 44.4141 27.0801 44.3398C26.8145 44.2344 26.5801 44.1289 26.377 44.0234C26.1777 43.9141 26.0098 43.793 25.873 43.6602C25.7402 43.5234 25.6387 43.3691 25.5684 43.1973C25.502 43.0254 25.4688 42.8242 25.4688 42.5938C25.4688 42.3125 25.5332 42.0645 25.6621 41.8496C25.791 41.6309 25.9629 41.4492 26.1777 41.3047C26.3926 41.1562 26.6367 41.0449 26.9102 40.9707C27.1875 40.8965 27.4727 40.8594 27.7656 40.8594C28.2852 40.8594 28.75 40.9492 29.1602 41.1289V42.1016C28.7188 41.8125 28.2109 41.668 27.6367 41.668C27.457 41.668 27.2949 41.6895 27.1504 41.7324C27.0059 41.7715 26.8809 41.8281 26.7754 41.9023C26.6738 41.9766 26.5938 42.0664 26.5352 42.1719C26.4805 42.2734 26.4531 42.3867 26.4531 42.5117C26.4531 42.668 26.4805 42.7988 26.5352 42.9043C26.5938 43.0098 26.6777 43.1035 26.7871 43.1855C26.8965 43.2676 27.0293 43.3418 27.1855 43.4082C27.3418 43.4746 27.5195 43.5469 27.7188 43.625C27.9844 43.7266 28.2227 43.832 28.4336 43.9414C28.6445 44.0469 28.8242 44.168 28.9727 44.3047C29.1211 44.4375 29.2344 44.5918 29.3125 44.7676C29.3945 44.9434 29.4355 45.1523 29.4355 45.3945C29.4355 45.6914 29.3691 45.9492 29.2363 46.168C29.1074 46.3867 28.9336 46.5684 28.7148 46.7129C28.4961 46.8574 28.2441 46.9648 27.959 47.0352C27.6738 47.1055 27.375 47.1406 27.0625 47.1406C26.4453 47.1406 25.9102 47.0215 25.457 46.7832Z" fill="#0068CF"/>
</svg>
