<svg width="46" height="50" viewBox="0 0 46 50" fill="none" xmlns="http://www.w3.org/2000/svg">
<path fill-rule="evenodd" clip-rule="evenodd" d="M14.4766 18.8081C14.9296 18.8081 15.2969 19.1774 15.2969 19.6329V27.8815H20.2187V22.1075C20.2187 21.4512 20.478 20.8218 20.9395 20.3577C21.4011 19.8936 22.027 19.6329 22.6797 19.6329H24.3203C24.973 19.6329 25.5989 19.8936 26.0605 20.3577C26.522 20.8218 26.7812 21.4512 26.7812 22.1075V27.8815H31.7031V19.6329C31.7031 19.1774 32.0704 18.8081 32.5234 18.8081C32.9765 18.8081 33.3437 19.1774 33.3437 19.6329V28.7064C33.3437 29.1619 32.9765 29.5312 32.5234 29.5312H25.9609C25.5079 29.5312 25.1406 29.1619 25.1406 28.7064V22.1075C25.1406 21.8887 25.0542 21.6789 24.9004 21.5242C24.7465 21.3695 24.5379 21.2826 24.3203 21.2826H22.6797C22.4621 21.2826 22.2535 21.3695 22.0996 21.5242C21.9458 21.6789 21.8594 21.8887 21.8594 22.1075V28.7064C21.8594 29.1619 21.4921 29.5312 21.0391 29.5312H14.4766C14.0235 29.5312 13.6562 29.1619 13.6562 28.7064V19.6329C13.6562 19.1774 14.0235 18.8081 14.4766 18.8081Z" fill="#0068CF"/>
<path fill-rule="evenodd" clip-rule="evenodd" d="M23.5 7.11847C23.3922 7.11847 23.2855 7.13983 23.186 7.18131C23.0864 7.2228 22.9959 7.2836 22.9198 7.36026L11.7754 18.5665C11.455 18.8886 10.9356 18.8886 10.6153 18.5665C10.2949 18.2443 10.2949 17.7221 10.6153 17.3999L21.7593 6.1941C21.9878 5.96415 22.2592 5.78173 22.5579 5.65727C22.8566 5.53281 23.1767 5.46875 23.5 5.46875C23.8233 5.46875 24.1434 5.53281 24.4421 5.65727C24.7407 5.78169 25.012 5.96405 25.2405 6.19391C25.2405 6.19385 25.2406 6.19397 25.2405 6.19391L36.3847 17.3999C36.7051 17.7221 36.7051 18.2443 36.3847 18.5665C36.0644 18.8886 35.545 18.8886 35.2246 18.5665L24.0804 7.36044C24.0042 7.28379 23.9136 7.2228 23.814 7.18131C23.7145 7.13983 23.6078 7.11847 23.5 7.11847Z" fill="#0068CF"/>
<path d="M2.52734 43.8242V47H1.54297V38.5977H3.85156C4.75 38.5977 5.44531 38.8164 5.9375 39.2539C6.43359 39.6914 6.68164 40.3086 6.68164 41.1055C6.68164 41.9023 6.40625 42.5547 5.85547 43.0625C5.30859 43.5703 4.56836 43.8242 3.63477 43.8242H2.52734ZM2.52734 39.4883V42.9336H3.55859C4.23828 42.9336 4.75586 42.7793 5.11133 42.4707C5.4707 42.1582 5.65039 41.7188 5.65039 41.1523C5.65039 40.043 4.99414 39.4883 3.68164 39.4883H2.52734ZM11.2695 41.9727C11.1016 41.8438 10.8594 41.7793 10.543 41.7793C10.1328 41.7793 9.78906 41.9727 9.51172 42.3594C9.23828 42.7461 9.10156 43.2734 9.10156 43.9414V47H8.14062V41H9.10156V42.2363H9.125C9.26172 41.8145 9.4707 41.4863 9.75195 41.252C10.0332 41.0137 10.3477 40.8945 10.6953 40.8945C10.9453 40.8945 11.1367 40.9219 11.2695 40.9766V41.9727ZM12.8047 39.4766C12.6328 39.4766 12.4863 39.418 12.3652 39.3008C12.2441 39.1836 12.1836 39.0352 12.1836 38.8555C12.1836 38.6758 12.2441 38.5273 12.3652 38.4102C12.4863 38.2891 12.6328 38.2285 12.8047 38.2285C12.9805 38.2285 13.1289 38.2891 13.25 38.4102C13.375 38.5273 13.4375 38.6758 13.4375 38.8555C13.4375 39.0273 13.375 39.1738 13.25 39.2949C13.1289 39.416 12.9805 39.4766 12.8047 39.4766ZM13.2734 47H12.3125V41H13.2734V47ZM20.1992 47H19.2383V43.5781C19.2383 42.3047 18.7734 41.668 17.8438 41.668C17.3633 41.668 16.9648 41.8496 16.6484 42.2129C16.3359 42.5723 16.1797 43.0273 16.1797 43.5781V47H15.2188V41H16.1797V41.9961H16.2031C16.6562 41.2383 17.3125 40.8594 18.1719 40.8594C18.8281 40.8594 19.3301 41.0723 19.6777 41.498C20.0254 41.9199 20.1992 42.5312 20.1992 43.332V47ZM26.1055 46.7246C25.6445 47.002 25.0977 47.1406 24.4648 47.1406C23.6094 47.1406 22.918 46.8633 22.3906 46.3086C21.8672 45.75 21.6055 45.0273 21.6055 44.1406C21.6055 43.1523 21.8887 42.3594 22.4551 41.7617C23.0215 41.1602 23.7773 40.8594 24.7227 40.8594C25.25 40.8594 25.7148 40.957 26.1172 41.1523V42.1367C25.6719 41.8242 25.1953 41.668 24.6875 41.668C24.0742 41.668 23.5703 41.8887 23.1758 42.3301C22.7852 42.7676 22.5898 43.3438 22.5898 44.0586C22.5898 44.7617 22.7734 45.3164 23.1406 45.7227C23.5117 46.1289 24.0078 46.332 24.6289 46.332C25.1523 46.332 25.6445 46.1582 26.1055 45.8105V46.7246ZM28.0508 39.4766C27.8789 39.4766 27.7324 39.418 27.6113 39.3008C27.4902 39.1836 27.4297 39.0352 27.4297 38.8555C27.4297 38.6758 27.4902 38.5273 27.6113 38.4102C27.7324 38.2891 27.8789 38.2285 28.0508 38.2285C28.2266 38.2285 28.375 38.2891 28.4961 38.4102C28.6211 38.5273 28.6836 38.6758 28.6836 38.8555C28.6836 39.0273 28.6211 39.1738 28.4961 39.2949C28.375 39.416 28.2266 39.4766 28.0508 39.4766ZM28.5195 47H27.5586V41H28.5195V47ZM31.4492 46.1328H31.4258V49.7598H30.4648V41H31.4258V42.0547H31.4492C31.9219 41.2578 32.6133 40.8594 33.5234 40.8594C34.2969 40.8594 34.9004 41.1289 35.334 41.668C35.7676 42.2031 35.9844 42.9219 35.9844 43.8242C35.9844 44.8281 35.7402 45.6328 35.252 46.2383C34.7637 46.8398 34.0957 47.1406 33.248 47.1406C32.4707 47.1406 31.8711 46.8047 31.4492 46.1328ZM31.4258 43.7129V44.5508C31.4258 45.0469 31.5859 45.4688 31.9062 45.8164C32.2305 46.1602 32.6406 46.332 33.1367 46.332C33.7188 46.332 34.1738 46.1094 34.502 45.6641C34.834 45.2188 35 44.5996 35 43.8066C35 43.1387 34.8457 42.6152 34.5371 42.2363C34.2285 41.8574 33.8105 41.668 33.2832 41.668C32.7246 41.668 32.2754 41.8633 31.9355 42.2539C31.5957 42.6406 31.4258 43.127 31.4258 43.7129ZM41.8145 47H40.8535V46.0625H40.8301C40.4121 46.7812 39.7969 47.1406 38.9844 47.1406C38.3867 47.1406 37.918 46.9824 37.5781 46.666C37.2422 46.3496 37.0742 45.9297 37.0742 45.4062C37.0742 44.2852 37.7344 43.6328 39.0547 43.4492L40.8535 43.1973C40.8535 42.1777 40.4414 41.668 39.6172 41.668C38.8945 41.668 38.2422 41.9141 37.6602 42.4062V41.4219C38.25 41.0469 38.9297 40.8594 39.6992 40.8594C41.1094 40.8594 41.8145 41.6055 41.8145 43.0977V47ZM40.8535 43.9648L39.4062 44.1641C38.9609 44.2266 38.625 44.3379 38.3984 44.498C38.1719 44.6543 38.0586 44.9336 38.0586 45.3359C38.0586 45.6289 38.1621 45.8691 38.3691 46.0566C38.5801 46.2402 38.8594 46.332 39.207 46.332C39.6836 46.332 40.0762 46.166 40.3848 45.834C40.6973 45.498 40.8535 45.0742 40.8535 44.5625V43.9648ZM44.5859 47H43.625V38.1172H44.5859V47Z" fill="#0068CF"/>
</svg>
