<svg width="59" height="50" viewBox="0 0 59 50" fill="none" xmlns="http://www.w3.org/2000/svg">
<path fill-rule="evenodd" clip-rule="evenodd" d="M20.4766 12.1844C19.8239 12.1844 19.1979 12.4493 18.7364 12.9209C18.2749 13.3925 18.0156 14.0321 18.0156 14.699V26.4339C18.0156 27.1009 18.2749 27.7405 18.7364 28.2121C19.1979 28.6836 19.8239 28.9486 20.4766 28.9486H36.8828C37.5355 28.9486 38.1614 28.6836 38.623 28.2121C39.0845 27.7405 39.3438 27.1009 39.3438 26.4339V24.7575C39.3438 24.2946 39.711 23.9193 40.1641 23.9193C40.6171 23.9193 40.9844 24.2946 40.9844 24.7575V26.4339C40.9844 27.5455 40.5522 28.6115 39.7831 29.3975C39.0139 30.1834 37.9706 30.625 36.8828 30.625H20.4766C19.3888 30.625 18.3455 30.1834 17.5763 29.3975C16.8071 28.6115 16.375 27.5455 16.375 26.4339V14.699C16.375 13.5875 16.8071 12.5215 17.5763 11.7355C18.3455 10.9495 19.3888 10.508 20.4766 10.508H36.8828C37.9706 10.508 39.0139 10.9495 39.7831 11.7355C40.5522 12.5215 40.9844 13.5875 40.9844 14.699V16.3754C40.9844 16.8384 40.6171 17.2136 40.1641 17.2136C39.711 17.2136 39.3438 16.8384 39.3438 16.3754V14.699C39.3438 14.0321 39.0845 13.3925 38.623 12.9209C38.1614 12.4493 37.5355 12.1844 36.8828 12.1844H20.4766Z" fill="#0068CF"/>
<path fill-rule="evenodd" clip-rule="evenodd" d="M32.6931 4.38135C33.0155 4.35789 33.3394 4.39958 33.6461 4.50404C33.9528 4.60851 34.2363 4.77369 34.4805 4.99016C34.7247 5.20664 34.9248 5.47015 35.0693 5.76566L37.6165 10.9713C37.8191 11.3854 37.6549 11.8888 37.2497 12.0959C36.8445 12.3029 36.3517 12.1351 36.1491 11.721L33.6018 6.51517C33.5536 6.41667 33.4868 6.32863 33.4054 6.25648C33.324 6.18432 33.2295 6.12926 33.1273 6.09444C33.025 6.05961 32.9171 6.04572 32.8096 6.05354C32.7021 6.06136 32.5972 6.09074 32.5008 6.14001L20.8434 12.0959C20.4382 12.3029 19.9455 12.1351 19.7429 11.721C19.5402 11.307 19.7045 10.8035 20.1097 10.5964L31.7667 4.64078C32.0558 4.49303 32.3707 4.40481 32.6931 4.38135Z" fill="#0068CF"/>
<path fill-rule="evenodd" clip-rule="evenodd" d="M32.5822 17.0102C33.5052 16.0671 34.7571 15.5372 36.0625 15.5372H40.1641C40.8167 15.5372 41.4427 15.8021 41.9042 16.2737C42.3657 16.7453 42.625 17.3849 42.625 18.0518V23.0811C42.625 23.748 42.3657 24.3876 41.9042 24.8592C41.4427 25.3308 40.8167 25.5957 40.1641 25.5957H36.0625C34.7571 25.5957 33.5052 25.0659 32.5822 24.1227C31.6592 23.1795 31.1406 21.9003 31.1406 20.5665C31.1406 19.2326 31.6592 17.9534 32.5822 17.0102ZM36.0625 17.2136C35.1923 17.2136 34.3577 17.5669 33.7423 18.1957C33.127 18.8244 32.7812 19.6772 32.7812 20.5665C32.7812 21.4557 33.127 22.3085 33.7423 22.9373C34.3577 23.5661 35.1923 23.9193 36.0625 23.9193H40.1641C40.3816 23.9193 40.5903 23.831 40.7441 23.6738C40.8979 23.5166 40.9844 23.3034 40.9844 23.0811V18.0518C40.9844 17.8295 40.8979 17.6163 40.7441 17.4591C40.5903 17.3019 40.3816 17.2136 40.1641 17.2136H36.0625Z" fill="#0068CF"/>
<path d="M6.30859 39.4883H3.88281V47H2.89844V39.4883H0.478516V38.5977H6.30859V39.4883ZM10.6328 41.9727C10.4648 41.8438 10.2227 41.7793 9.90625 41.7793C9.49609 41.7793 9.15234 41.9727 8.875 42.3594C8.60156 42.7461 8.46484 43.2734 8.46484 43.9414V47H7.50391V41H8.46484V42.2363H8.48828C8.625 41.8145 8.83398 41.4863 9.11523 41.252C9.39648 41.0137 9.71094 40.8945 10.0586 40.8945C10.3086 40.8945 10.5 40.9219 10.6328 40.9766V41.9727ZM15.9707 47H15.0098V46.0625H14.9863C14.5684 46.7812 13.9531 47.1406 13.1406 47.1406C12.543 47.1406 12.0742 46.9824 11.7344 46.666C11.3984 46.3496 11.2305 45.9297 11.2305 45.4062C11.2305 44.2852 11.8906 43.6328 13.2109 43.4492L15.0098 43.1973C15.0098 42.1777 14.5977 41.668 13.7734 41.668C13.0508 41.668 12.3984 41.9141 11.8164 42.4062V41.4219C12.4062 41.0469 13.0859 40.8594 13.8555 40.8594C15.2656 40.8594 15.9707 41.6055 15.9707 43.0977V47ZM15.0098 43.9648L13.5625 44.1641C13.1172 44.2266 12.7812 44.3379 12.5547 44.498C12.3281 44.6543 12.2148 44.9336 12.2148 45.3359C12.2148 45.6289 12.3184 45.8691 12.5254 46.0566C12.7363 46.2402 13.0156 46.332 13.3633 46.332C13.8398 46.332 14.2324 46.166 14.541 45.834C14.8535 45.498 15.0098 45.0742 15.0098 44.5625V43.9648ZM22.7617 47H21.8008V43.5781C21.8008 42.3047 21.3359 41.668 20.4062 41.668C19.9258 41.668 19.5273 41.8496 19.2109 42.2129C18.8984 42.5723 18.7422 43.0273 18.7422 43.5781V47H17.7812V41H18.7422V41.9961H18.7656C19.2188 41.2383 19.875 40.8594 20.7344 40.8594C21.3906 40.8594 21.8926 41.0723 22.2402 41.498C22.5879 41.9199 22.7617 42.5312 22.7617 43.332V47ZM24.2148 46.7832V45.752C24.7383 46.1387 25.3145 46.332 25.9434 46.332C26.7871 46.332 27.209 46.0508 27.209 45.4883C27.209 45.3281 27.1719 45.1934 27.0977 45.084C27.0273 44.9707 26.9297 44.8711 26.8047 44.7852C26.6836 44.6992 26.5391 44.623 26.3711 44.5566C26.207 44.4863 26.0293 44.4141 25.8379 44.3398C25.5723 44.2344 25.3379 44.1289 25.1348 44.0234C24.9355 43.9141 24.7676 43.793 24.6309 43.6602C24.498 43.5234 24.3965 43.3691 24.3262 43.1973C24.2598 43.0254 24.2266 42.8242 24.2266 42.5938C24.2266 42.3125 24.291 42.0645 24.4199 41.8496C24.5488 41.6309 24.7207 41.4492 24.9355 41.3047C25.1504 41.1562 25.3945 41.0449 25.668 40.9707C25.9453 40.8965 26.2305 40.8594 26.5234 40.8594C27.043 40.8594 27.5078 40.9492 27.918 41.1289V42.1016C27.4766 41.8125 26.9688 41.668 26.3945 41.668C26.2148 41.668 26.0527 41.6895 25.9082 41.7324C25.7637 41.7715 25.6387 41.8281 25.5332 41.9023C25.4316 41.9766 25.3516 42.0664 25.293 42.1719C25.2383 42.2734 25.2109 42.3867 25.2109 42.5117C25.2109 42.668 25.2383 42.7988 25.293 42.9043C25.3516 43.0098 25.4355 43.1035 25.5449 43.1855C25.6543 43.2676 25.7871 43.3418 25.9434 43.4082C26.0996 43.4746 26.2773 43.5469 26.4766 43.625C26.7422 43.7266 26.9805 43.832 27.1914 43.9414C27.4023 44.0469 27.582 44.168 27.7305 44.3047C27.8789 44.4375 27.9922 44.5918 28.0703 44.7676C28.1523 44.9434 28.1934 45.1523 28.1934 45.3945C28.1934 45.6914 28.127 45.9492 27.9941 46.168C27.8652 46.3867 27.6914 46.5684 27.4727 46.7129C27.2539 46.8574 27.002 46.9648 26.7168 47.0352C26.4316 47.1055 26.1328 47.1406 25.8203 47.1406C25.2031 47.1406 24.668 47.0215 24.2148 46.7832ZM33.9707 47H33.0098V46.0625H32.9863C32.5684 46.7812 31.9531 47.1406 31.1406 47.1406C30.543 47.1406 30.0742 46.9824 29.7344 46.666C29.3984 46.3496 29.2305 45.9297 29.2305 45.4062C29.2305 44.2852 29.8906 43.6328 31.2109 43.4492L33.0098 43.1973C33.0098 42.1777 32.5977 41.668 31.7734 41.668C31.0508 41.668 30.3984 41.9141 29.8164 42.4062V41.4219C30.4062 41.0469 31.0859 40.8594 31.8555 40.8594C33.2656 40.8594 33.9707 41.6055 33.9707 43.0977V47ZM33.0098 43.9648L31.5625 44.1641C31.1172 44.2266 30.7812 44.3379 30.5547 44.498C30.3281 44.6543 30.2148 44.9336 30.2148 45.3359C30.2148 45.6289 30.3184 45.8691 30.5254 46.0566C30.7363 46.2402 31.0156 46.332 31.3633 46.332C31.8398 46.332 32.2324 46.166 32.541 45.834C32.8535 45.498 33.0098 45.0742 33.0098 44.5625V43.9648ZM39.8711 46.7246C39.4102 47.002 38.8633 47.1406 38.2305 47.1406C37.375 47.1406 36.6836 46.8633 36.1562 46.3086C35.6328 45.75 35.3711 45.0273 35.3711 44.1406C35.3711 43.1523 35.6543 42.3594 36.2207 41.7617C36.7871 41.1602 37.543 40.8594 38.4883 40.8594C39.0156 40.8594 39.4805 40.957 39.8828 41.1523V42.1367C39.4375 41.8242 38.9609 41.668 38.4531 41.668C37.8398 41.668 37.3359 41.8887 36.9414 42.3301C36.5508 42.7676 36.3555 43.3438 36.3555 44.0586C36.3555 44.7617 36.5391 45.3164 36.9062 45.7227C37.2773 46.1289 37.7734 46.332 38.3945 46.332C38.918 46.332 39.4102 46.1582 39.8711 45.8105V46.7246ZM39.3672 48.5C39.3672 49.1875 38.8301 49.5312 37.7559 49.5312C37.6074 49.5312 37.4805 49.5273 37.375 49.5195V48.9922C37.543 49.0156 37.6797 49.0273 37.7852 49.0273C38.3359 49.0273 38.6113 48.8516 38.6113 48.5C38.6113 48.1953 38.3594 48.043 37.8555 48.043C37.8164 48.043 37.7363 48.0508 37.6152 48.0664V47H38.248V47.6094C38.5918 47.6094 38.8633 47.6875 39.0625 47.8438C39.2656 48 39.3672 48.2188 39.3672 48.5ZM43.832 47.1406C42.9453 47.1406 42.2363 46.8613 41.7051 46.3027C41.1777 45.7402 40.9141 44.9961 40.9141 44.0703C40.9141 43.0625 41.1895 42.2754 41.7402 41.709C42.291 41.1426 43.0352 40.8594 43.9727 40.8594C44.8672 40.8594 45.5645 41.1348 46.0645 41.6855C46.5684 42.2363 46.8203 43 46.8203 43.9766C46.8203 44.9336 46.5488 45.7012 46.0059 46.2793C45.4668 46.8535 44.7422 47.1406 43.832 47.1406ZM43.9023 41.668C43.2852 41.668 42.7969 41.8789 42.4375 42.3008C42.0781 42.7188 41.8984 43.2969 41.8984 44.0352C41.8984 44.7461 42.0801 45.3066 42.4434 45.7168C42.8066 46.127 43.293 46.332 43.9023 46.332C44.5234 46.332 45 46.1309 45.332 45.7285C45.668 45.3262 45.8359 44.7539 45.8359 44.0117C45.8359 43.2617 45.668 42.6836 45.332 42.2773C45 41.8711 44.5234 41.668 43.9023 41.668ZM45.8066 38.457C45.8066 38.8672 45.7129 39.2031 45.5254 39.4648C45.3379 39.7227 45.084 39.8516 44.7637 39.8516C44.4863 39.8516 44.1699 39.75 43.8145 39.5469C43.5137 39.3789 43.2812 39.2949 43.1172 39.2949C42.7734 39.2949 42.6016 39.5156 42.6016 39.957H42.0508C42.0508 39.5391 42.1445 39.2051 42.332 38.9551C42.5195 38.7012 42.7812 38.5742 43.1172 38.5742C43.3711 38.5742 43.6621 38.6758 43.9902 38.8789C44.2793 39.0508 44.5293 39.1367 44.7402 39.1367C45.0684 39.1367 45.2324 38.9102 45.2324 38.457H45.8066ZM53.1777 44.2402H48.9414C48.957 44.9082 49.1367 45.4238 49.4805 45.7871C49.8242 46.1504 50.2969 46.332 50.8984 46.332C51.5742 46.332 52.1953 46.1094 52.7617 45.6641V46.5664C52.2344 46.9492 51.5371 47.1406 50.6699 47.1406C49.8223 47.1406 49.1562 46.8691 48.6719 46.3262C48.1875 45.7793 47.9453 45.0117 47.9453 44.0234C47.9453 43.0898 48.209 42.3301 48.7363 41.7441C49.2676 41.1543 49.9258 40.8594 50.7109 40.8594C51.4961 40.8594 52.1035 41.1133 52.5332 41.6211C52.9629 42.1289 53.1777 42.834 53.1777 43.7363V44.2402ZM52.1934 43.4258C52.1895 42.8711 52.0547 42.4395 51.7891 42.1309C51.5273 41.8223 51.1621 41.668 50.6934 41.668C50.2402 41.668 49.8555 41.8301 49.5391 42.1543C49.2227 42.4785 49.0273 42.9023 48.9531 43.4258H52.1934ZM54.2734 46.7832V45.752C54.7969 46.1387 55.373 46.332 56.002 46.332C56.8457 46.332 57.2676 46.0508 57.2676 45.4883C57.2676 45.3281 57.2305 45.1934 57.1562 45.084C57.0859 44.9707 56.9883 44.8711 56.8633 44.7852C56.7422 44.6992 56.5977 44.623 56.4297 44.5566C56.2656 44.4863 56.0879 44.4141 55.8965 44.3398C55.6309 44.2344 55.3965 44.1289 55.1934 44.0234C54.9941 43.9141 54.8262 43.793 54.6895 43.6602C54.5566 43.5234 54.4551 43.3691 54.3848 43.1973C54.3184 43.0254 54.2852 42.8242 54.2852 42.5938C54.2852 42.3125 54.3496 42.0645 54.4785 41.8496C54.6074 41.6309 54.7793 41.4492 54.9941 41.3047C55.209 41.1562 55.4531 41.0449 55.7266 40.9707C56.0039 40.8965 56.2891 40.8594 56.582 40.8594C57.1016 40.8594 57.5664 40.9492 57.9766 41.1289V42.1016C57.5352 41.8125 57.0273 41.668 56.4531 41.668C56.2734 41.668 56.1113 41.6895 55.9668 41.7324C55.8223 41.7715 55.6973 41.8281 55.5918 41.9023C55.4902 41.9766 55.4102 42.0664 55.3516 42.1719C55.2969 42.2734 55.2695 42.3867 55.2695 42.5117C55.2695 42.668 55.2969 42.7988 55.3516 42.9043C55.4102 43.0098 55.4941 43.1035 55.6035 43.1855C55.7129 43.2676 55.8457 43.3418 56.002 43.4082C56.1582 43.4746 56.3359 43.5469 56.5352 43.625C56.8008 43.7266 57.0391 43.832 57.25 43.9414C57.4609 44.0469 57.6406 44.168 57.7891 44.3047C57.9375 44.4375 58.0508 44.5918 58.1289 44.7676C58.2109 44.9434 58.252 45.1523 58.252 45.3945C58.252 45.6914 58.1855 45.9492 58.0527 46.168C57.9238 46.3867 57.75 46.5684 57.5312 46.7129C57.3125 46.8574 57.0605 46.9648 56.7754 47.0352C56.4902 47.1055 56.1914 47.1406 55.8789 47.1406C55.2617 47.1406 54.7266 47.0215 54.2734 46.7832Z" fill="#0068CF"/>
</svg>
